<svg width="70" height="70" viewBox="0 0 70 70" fill="none" xmlns="http://www.w3.org/2000/svg">
<rect width="70" height="70" fill="#F585A7"/>
<g clip-path="url(#clip0_1863_41)">
<path d="M17.8748 19.125H53.1248C53.6442 19.125 54.1423 19.305 54.5096 19.6254C54.8768 19.9457 55.0832 20.3803 55.0832 20.8333V48.1667C55.0832 48.6197 54.8768 49.0543 54.5096 49.3746C54.1423 49.695 53.6442 49.875 53.1248 49.875H17.8748C17.3555 49.875 16.8573 49.695 16.4901 49.3746C16.1228 49.0543 15.9165 48.6197 15.9165 48.1667V20.8333C15.9165 20.3803 16.1228 19.9457 16.4901 19.6254C16.8573 19.305 17.3555 19.125 17.8748 19.125V19.125ZM51.1665 26.3649L35.6408 38.4941L19.8332 26.3273V46.4583H51.1665V26.3649ZM20.8339 22.5417L35.6193 33.9226L50.1913 22.5417H20.8339Z" fill="#FAFAFD"/>
</g>
<defs>
<clipPath id="clip0_1863_41">
<rect x="12" y="14" width="47" height="41" rx="2" fill="white"/>
</clipPath>
</defs>
</svg>
