<svg width="70" height="70" viewBox="0 0 70 70" fill="none" xmlns="http://www.w3.org/2000/svg">
<rect width="70" height="70" fill="#99E1EF"/>
<g clip-path="url(#clip0_1863_39)">
<path fill-rule="evenodd" clip-rule="evenodd" d="M18.5937 32.8074C28.7931 28.3037 35.583 25.3111 38.9925 23.8593C48.6965 19.7407 50.7364 19.0296 52.0477 19C52.3391 19 52.9803 19.0593 53.4174 19.4148C53.7671 19.7111 53.8545 20.0963 53.9128 20.3926C53.9711 20.6889 54.0293 21.3111 53.9711 21.7852C53.4465 27.4148 51.1735 41.0741 50.0079 47.3556C49.5125 50.0222 48.5508 50.9111 47.6183 51C45.5784 51.1778 44.0339 49.637 42.0815 48.3333C38.9925 46.2889 37.2732 45.0148 34.2717 43C30.8039 40.6889 33.0477 39.4148 35.0293 37.3407C35.5539 36.8074 44.5002 28.5111 44.675 27.7704C44.7042 27.6815 44.7042 27.3259 44.5002 27.1481C44.2962 26.9704 44.0048 27.0296 43.7717 27.0889C43.4511 27.1481 38.5554 30.4667 29.0263 37.0148C27.6275 37.9926 26.3744 38.4667 25.2379 38.437C23.9849 38.4074 21.5953 37.7259 19.7885 37.1333C17.603 36.4222 15.8545 36.037 16.0002 34.7926C16.0876 34.1407 16.9618 33.4889 18.5937 32.8074Z" fill="white"/>
</g>
<defs>
<clipPath id="clip0_1863_39">
<rect width="38" height="32" fill="white" transform="translate(16 19)"/>
</clipPath>
</defs>
</svg>
