<svg width="70" height="70" viewBox="0 0 70 70" fill="none" xmlns="http://www.w3.org/2000/svg">
<rect width="70" height="70" fill="#AA89C0"/>
<path d="M52.6721 22.7926C50.4098 22.299 48.377 21.1144 46.8689 19.4363C45.2951 17.7253 44.2459 15.4878 44.0492 13.02V12H41.8852H36.1475V43.4564C36.1475 47.1087 33.1639 50.103 29.4918 50.103C27.3279 50.103 25.4262 49.083 24.2131 47.4707C23.3279 46.319 22.8689 44.9041 22.8689 43.4235C22.8689 39.7382 25.8525 36.7768 29.5246 36.7768C30.2131 36.7768 30.9016 36.8755 31.5246 37.073V29.0443C30.7705 28.9456 29.9836 28.8798 29.2295 28.9127C21.3279 29.0773 15 35.5265 15 43.4564C15 47.4049 16.5738 51.0243 19.1311 53.6237C21.7541 56.3219 25.4262 58 29.5246 58C37.5574 58 44.0492 51.485 44.0492 43.4564V27.3991C47.1311 29.6037 50.9016 30.9199 55 30.9199V23.0229C54.2131 23.0229 53.4262 22.9571 52.6721 22.7926Z" fill="#FAFAFD"/>
</svg>
