<svg width="70" height="70" viewBox="0 0 70 70" fill="none" xmlns="http://www.w3.org/2000/svg">
<rect width="70" height="70" fill="#8A9CC6"/>
<g clip-path="url(#clip0_1863_53)">
<path fill-rule="evenodd" clip-rule="evenodd" d="M56.9453 23.7447C57.2617 22.7184 56.9453 22 55.4687 22H50.5469C49.2812 22 48.7187 22.65 48.4023 23.3684C48.4023 23.3684 45.9062 29.3211 42.3555 33.1526C41.1953 34.2816 40.7031 34.6237 40.0703 34.6237C39.7539 34.6237 39.2969 34.2816 39.2969 33.2553V23.7447C39.2969 22.5132 38.9453 22 37.8906 22H30.1562C29.3828 22 28.8906 22.5816 28.8906 23.0947C28.8906 24.2579 30.6484 24.5316 30.8594 27.7474V34.7947C30.8594 36.3342 30.5781 36.6079 29.9453 36.6079C28.293 36.6079 24.2148 30.6553 21.8242 23.8132C21.332 22.5474 20.875 22 19.6094 22H14.6875C13.2813 22 13 22.65 13 23.3684C13 24.6342 14.6523 30.9289 20.7695 39.2421C24.8477 44.9211 30.5781 48 35.7812 48C38.9102 48 39.2969 47.3158 39.2969 46.1526V41.8421C39.2969 40.4737 39.5781 40.2 40.5977 40.2C41.3359 40.2 42.5664 40.5421 45.4844 43.2789C48.8242 46.5289 49.3867 48 51.25 48H56.1719C57.5781 48 58.2812 47.3158 57.8594 45.9816C57.4023 44.6474 55.8203 42.6974 53.7109 40.3711C52.5508 39.0368 50.8281 37.6342 50.3359 36.9158C49.5977 35.9921 49.8086 35.5816 50.3359 34.7947C50.3359 34.7605 56.3477 26.55 56.9453 23.7447Z" fill="white"/>
</g>
<defs>
<clipPath id="clip0_1863_53">
<rect width="45" height="26" fill="white" transform="translate(13 22)"/>
</clipPath>
</defs>
</svg>
