 <svg width="51" height="45" viewBox="0 0 51 45" fill="none" xmlns="http://www.w3.org/2000/svg"
           tabIndex="0" role="button" aria-label="Previous slide"
          aria-controls="swiper-wrapper-1a584f1083998082c">
          <g style="mix-blend-mode:multiply">
            <path fill-rule="evenodd" clip-rule="evenodd"
              d="M48.9876 18.0902C46.3255 7.21751 40.1056 -2.76772 26.3595 0.699991C12.9288 4.08813 -12.5194 11.149 7.57969 34.3406C14.521 42.3498 26.3595 44.6959 35.4977 44.696C44.6359 44.6962 52.9572 34.3034 48.9876 18.0902ZM27.9259 33.2335C28.5056 33.8253 29.4554 33.8352 30.0473 33.2557C30.6393 32.6761 30.6492 31.7265 30.0695 31.1347L21.1251 22.0033L30.048 13.2549C30.6396 12.675 30.6489 11.7254 30.0688 11.134C29.4887 10.5425 28.5389 10.5333 27.9473 11.1132L17.954 20.9109L16.8837 21.9603L17.9326 23.0312L27.9259 33.2335Z"
              fill="#30529F">
            </path>
          </g>
        </svg>
