 <svg width="55" height="45" viewBox="0 0 55 45" fill="none" xmlns="http://www.w3.org/2000/svg"
          xmlns:xlink="http://www.w3.org/1999/xlink" tabIndex="0"
          role="button" aria-label="Next slide" aria-controls="swiper-wrapper-1a584f1083998082c">
          <g style="mix-blend-mode:multiply">
            <path fill-rule="evenodd" clip-rule="evenodd"
              d="M2.00999 26.6058C4.67203 37.4785 10.892 47.4638 24.6381 43.9961C38.0688 40.6079 63.517 33.547 43.4179 10.3555C36.4766 2.34624 24.6381 0.000119182 15.4999 1.08039e-09C6.36168 -0.000122355 -1.95962 10.3926 2.00999 26.6058ZM23.0717 11.4626C22.492 10.8708 21.5422 10.8608 20.9503 11.4404C20.3583 12.0199 20.3484 12.9695 20.9281 13.5614L29.8724 22.6928L20.9495 31.4411C20.358 32.0211 20.3487 32.9707 20.9288 33.5621C21.5089 34.1535 22.4587 34.1628 23.0502 33.5828L33.0435 23.7851L34.1139 22.7357L33.065 21.6648L23.0717 11.4626Z"
              fill="#30529F" fill-opacity="1"></path>
          </g>
        </svg>
